<svg width="24" height="24" viewBox="0 0 24 24" fill="none" xmlns="http://www.w3.org/2000/svg">
<g id="download (1) 1">
<path id="Vector" d="M3 8.25037C3 5.35012 5.35012 3 8.25037 3H15.7496C18.6499 3 21 5.35012 21 8.25037V15.7496C21 18.6499 18.6499 21 15.7496 21H8.25037C5.35012 21 3 18.6499 3 15.7496V8.25037ZM15.7496 6.74963C15.7373 7.29413 16.0208 7.8015 16.4899 8.07712C16.959 8.35275 17.5395 8.35275 18.0086 8.07712C18.4777 7.80262 18.7613 7.29413 18.7489 6.75075C18.7309 5.93513 18.0649 5.28375 17.2504 5.28375C16.4347 5.28375 15.7688 5.93513 15.7496 6.74963ZM8.25037 12C8.25037 14.0711 9.93 15.7508 12.0011 15.7496C14.0723 15.7496 15.7507 14.07 15.7507 11.9989C15.7507 9.92775 14.0711 8.24925 12 8.24925C9.92887 8.24925 8.24925 9.92887 8.25037 12Z" fill="#405261"/>
</g>
</svg>
