<svg width="25" height="24" viewBox="0 0 25 24" fill="none" xmlns="http://www.w3.org/2000/svg">
<g id="Icon / Facebook">
<path id="Vector" d="M17.4135 6H14.4135C13.8612 6 13.4135 6.44772 13.4135 7V10H17.4135C17.5272 9.99748 17.6351 10.0504 17.7027 10.1419C17.7703 10.2334 17.7893 10.352 17.7535 10.46L17.0135 12.66C16.9453 12.8619 16.7566 12.9984 16.5435 13H13.4135V20.5C13.4135 20.7761 13.1896 21 12.9135 21H10.4135C10.1374 21 9.91351 20.7761 9.91351 20.5V13H8.41351C8.13737 13 7.91351 12.7761 7.91351 12.5V10.5C7.91351 10.2239 8.13737 10 8.41351 10H9.91351V7C9.91351 4.79086 11.7044 3 13.9135 3H17.4135C17.6896 3 17.9135 3.22386 17.9135 3.5V5.5C17.9135 5.77614 17.6896 6 17.4135 6Z" fill="#405261"/>
</g>
</svg>
