<svg version="1.2" xmlns="http://www.w3.org/2000/svg" viewBox="0 0 13 13" width="13" height="13"><style>.a{fill:#405261}</style><path fill-rule="evenodd" class="a" d="m11.1 1.9c1.2 1.2 1.9 2.9 1.9 4.6 0 1.7-0.7 3.4-1.9 4.6-1.2 1.2-2.9 1.9-4.6 1.9-1.7 0-3.4-0.7-4.6-1.9-1.2-1.2-1.9-2.9-1.9-4.6 0-1.7 0.7-3.4 1.9-4.6 1.2-1.2 2.9-1.9 4.6-1.9 1.7 0 3.4 0.7 4.6 1.9zm-7.4 2.1q0.3-1.4 1-2.7c-1.4 0.5-2.5 1.5-3.1 2.7zm-2.7 3q0.1 0.5 0.2 1h2.5q-0.2-1-0.2-2 0-0.5 0.1-1h-2.4q-0.2 0.7-0.2 1.5 0 0.2 0 0.5zm3.7 1h3.6q0.2-1 0.2-2 0-0.5-0.1-1h-3.8q-0.1 0.5-0.1 1 0 0.5 0.1 0.9v0.1q0 0.5 0.1 1zm3.6-4q-0.4-1.6-1.3-3h-0.2q-0.1 0-0.3 0-0.2 0-0.5 0-0.9 1.4-1.2 3zm3.1 0c-0.6-1.3-1.7-2.2-3.1-2.7q0.7 1.3 1 2.7zm-2 1q0.1 0.5 0.1 1 0 1-0.2 2h2.5q0.2-0.7 0.2-1.5 0-0.8-0.2-1.5zm-1.9 6.9q1.3-0.3 2.3-1 1-0.8 1.5-1.9h-2.3q-0.5 1.6-1.5 2.9zm0.4-2.9h-2.9q0.5 1.4 1.4 2.6 1-1.2 1.5-2.6zm-6.3 0q0.5 1.1 1.5 1.9 1 0.7 2.3 1-1-1.3-1.5-2.9z"/></svg>