<svg width="24" height="24" viewBox="0 0 24 24" fill="none" xmlns="http://www.w3.org/2000/svg">
<g id="icons8-youtube 1">
<path id="Vector" d="M21.5513 6.96007C21.36 5.90444 20.4488 5.13569 19.3913 4.89569C17.8088 4.56007 14.88 4.32007 11.7113 4.32007C8.54438 4.32007 5.56875 4.56007 3.98438 4.89569C2.92875 5.13569 2.01563 5.85569 1.82438 6.96007C1.63125 8.16007 1.44 9.84007 1.44 12.0001C1.44 14.1601 1.63125 15.8401 1.87125 17.0401C2.06438 18.0957 2.97563 18.8644 4.03125 19.1044C5.71125 19.4401 8.59125 19.6801 11.76 19.6801C14.9288 19.6801 17.8088 19.4401 19.4888 19.1044C20.5444 18.8644 21.4556 18.1444 21.6488 17.0401C21.84 15.8401 22.08 14.1113 22.1288 12.0001C22.0313 9.84007 21.7913 8.16007 21.5513 6.96007ZM9.12 15.3601V8.64007L14.9756 12.0001L9.12 15.3601Z" fill="#405261"/>
</g>
</svg>
